0
SECTION
2
HEADER
9
$INSUNITS
70
4
9
$ACADVER
1
AC1014
9
$HANDSEED
5
FFFF
0
ENDSEC
0
SECTION
2
TABLES
0
TABLE
2
VPORT
5
8
100
AcDbSymbolTable
0
ENDTAB
0
TABLE
2
LTYPE
5
5
100
AcDbSymbolTable
0
LTYPE
5
14
100
AcDbSymbolTableRecord
100
AcDbLinetypeTableRecord
2
BYBLOCK
70
0
0
LTYPE
5
15
100
AcDbSymbolTableRecord
100
AcDbLinetypeTableRecord
2
BYLAYER
70
0
0
LTYPE
5
16
100
AcDbSymbolTableRecord
100
AcDbLinetypeTableRecord
2
DASHED
70
0
3
Dashed __ __ __ __ __ __ __ __ __ __ __ __ __ _
72
65
73
2
40
0.75
49
0.5
74
0
49
-0.25
74
0
0
ENDTAB
0
TABLE
2
LAYER
5
2
100
AcDbSymbolTable
70
2
0
LAYER
5
50
100
AcDbSymbolTableRecord
100
AcDbLayerTableRecord
2
0
70
0
62
7
6
CONTINUOUS
0
ENDTAB
0
TABLE
2
STYLE
5
3
100
AcDbSymbolTable
70
1
0
STYLE
5
11
100
AcDbSymbolTableRecord
100
AcDbTextStyleTableRecord
2
STANDARD
70
0
0
ENDTAB
0
TABLE
2
VIEW
5
6
100
AcDbSymbolTable
70
0
0
ENDTAB
0
TABLE
2
UCS
5
7
100
AcDbSymbolTable
70
0
0
ENDTAB
0
TABLE
2
APPID
5
9
100
AcDbSymbolTable
70
2
0
APPID
5
12
100
AcDbSymbolTableRecord
100
AcDbRegAppTableRecord
2
ACAD
70
0
0
ENDTAB
0
TABLE
2
DIMSTYLE
5
A
100
AcDbSymbolTable
70
1
0
ENDTAB
0
TABLE
2
BLOCK_RECORD
5
1
100
AcDbSymbolTable
70
1
0
BLOCK_RECORD
5
1F
100
AcDbSymbolTableRecord
100
AcDbBlockTableRecord
2
*MODEL_SPACE
0
BLOCK_RECORD
5
1B
100
AcDbSymbolTableRecord
100
AcDbBlockTableRecord
2
*PAPER_SPACE
0
ENDTAB
0
ENDSEC
0
SECTION
2
BLOCKS
0
BLOCK
5
20
100
AcDbEntity
100
AcDbBlockBegin
2
*MODEL_SPACE
0
ENDBLK
5
21
100
AcDbEntity
100
AcDbBlockEnd
0
BLOCK
5
1C
100
AcDbEntity
100
AcDbBlockBegin
2
*PAPER_SPACE
0
ENDBLK
5
1D
100
AcDbEntity
100
AcDbBlockEnd
0
ENDSEC
0
SECTION
2
ENTITIES
0
CIRCLE
5
100
100
AcDbEntity
8
0
100
AcDbCircle
10
-97.019999999999996
20
-3.0000000000000004
30
0
40
1.6000000000000014
210
0
220
-0
230
1
0
CIRCLE
5
101
100
AcDbEntity
8
0
100
AcDbCircle
10
97.019999999999982
20
-80.349999999999994
30
0
40
1.6000000000000014
210
0
220
-0
230
1
0
CIRCLE
5
102
100
AcDbEntity
8
0
100
AcDbCircle
10
47.283999999999999
20
-30.638000000000005
30
0
40
0.99999999999999645
210
0
220
-0
230
1
0
CIRCLE
5
103
100
AcDbEntity
8
0
100
AcDbCircle
10
90.717999999999989
20
-8.0320000000000018
30
0
40
0.99999999999999645
210
0
220
-0
230
1
0
CIRCLE
5
104
100
AcDbEntity
8
0
100
AcDbCircle
10
47.283999999999999
20
-8.0320000000000018
30
0
40
0.99999999999999645
210
0
220
-0
230
1
0
CIRCLE
5
105
100
AcDbEntity
8
0
100
AcDbCircle
10
90.717999999999989
20
-30.638000000000005
30
0
40
0.99999999999999645
210
0
220
-0
230
1
0
LWPOLYLINE
5
106
100
AcDbEntity
8
0
100
AcDbPolyline
90
12
70
1
43
0.0
10
53.981999999999992
20
-32.670000000000002
10
53.981999999999992
20
-26.670000000000002
10
43.981999999999992
20
-26.670000000000002
10
43.981999999999992
20
-12.000000000000002
10
53.981999999999992
20
-12.000000000000002
10
53.981999999999992
20
-6.0000000000000009
10
84.019999999999996
20
-6.0000000000000053
10
84.019999999999996
20
-12.000000000000002
10
94.019999999999996
20
-12.000000000000002
10
94.019999999999996
20
-26.670000000000002
10
84.019999999999996
20
-26.670000000000002
10
84.019999999999996
20
-32.670000000000002
0
LWPOLYLINE
5
107
100
AcDbEntity
8
0
100
AcDbPolyline
90
52
70
1
43
0.0
10
-100.02000000000001
20
-66.680000000000007
10
-106.02000000000001
20
-66.680000000000007
10
-106.02000000000001
20
-89.350000000000009
10
-82.45999999999998
20
-89.350000000000009
10
-82.460000000000008
20
-83.350000000000009
10
-58.899999999999999
20
-83.350000000000009
10
-58.899999999999999
20
-89.350000000000009
10
-35.339999999999982
20
-89.350000000000009
10
-35.339999999999982
20
-83.350000000000009
10
-11.779999999999973
20
-83.350000000000009
10
-11.779999999999973
20
-89.350000000000009
10
11.780000000000008
20
-89.350000000000009
10
11.780000000000008
20
-83.350000000000009
10
35.340000000000025
20
-83.350000000000009
10
35.340000000000025
20
-89.350000000000009
10
58.900000000000041
20
-89.350000000000009
10
58.900000000000041
20
-83.350000000000009
10
82.460000000000065
20
-83.350000000000009
10
82.460000000000065
20
-89.350000000000009
10
106.02000000000004
20
-89.350000000000009
10
106.02000000000004
20
-66.680000000000007
10
100.01999999999998
20
-66.680000000000007
10
100.01999999999998
20
-50.010000000000005
10
106.02000000000004
20
-50.010000000000005
10
106.02000000000004
20
-33.339999999999996
10
100.01999999999998
20
-33.339999999999996
10
100.01999999999998
20
-16.669999999999998
10
106.02000000000004
20
-16.669999999999998
10
106.02000000000004
20
5.9999999999999964
10
82.460000000000022
20
5.9999999999999982
10
82.460000000000022
20
0
10
58.900000000000013
20
0
10
58.900000000000013
20
5.9999999999999982
10
35.339999999999996
20
5.9999999999999982
10
35.339999999999996
20
0
10
11.77999999999999
20
0
10
11.77999999999999
20
5.9999999999999982
10
-11.77999999999999
20
5.9999999999999982
10
-11.77999999999999
20
0
10
-35.340000000000003
20
0
10
-35.340000000000003
20
5.9999999999999982
10
-58.90000000000002
20
5.9999999999999982
10
-58.90000000000002
20
0
10
-82.460000000000036
20
0
10
-82.460000000000036
20
5.9999999999999982
10
-106.01999999999998
20
5.9999999999999982
10
-106.01999999999998
20
-16.670000000000005
10
-100.02000000000001
20
-16.670000000000009
10
-100.02000000000001
20
-33.340000000000003
10
-106.01999999999998
20
-33.340000000000003
10
-106.01999999999998
20
-50.010000000000012
10
-100.02000000000001
20
-50.010000000000012
0
ENDSEC
0
SECTION
2
OBJECTS
0
DICTIONARY
5
C
100
AcDbDictionary
3
ACAD_GROUP
350
D
3
ACAD_MLINESTYLE
350
17
0
DICTIONARY
5
D
100
AcDbDictionary
0
DICTIONARY
5
1A
330
C
100
AcDbDictionary
0
DICTIONARY
5
17
100
AcDbDictionary
0
ENDSEC
0
EOF
