0
SECTION
2
HEADER
9
$INSUNITS
70
4
9
$ACADVER
1
AC1014
9
$HANDSEED
5
FFFF
0
ENDSEC
0
SECTION
2
TABLES
0
TABLE
2
VPORT
5
8
100
AcDbSymbolTable
0
ENDTAB
0
TABLE
2
LTYPE
5
5
100
AcDbSymbolTable
0
LTYPE
5
14
100
AcDbSymbolTableRecord
100
AcDbLinetypeTableRecord
2
BYBLOCK
70
0
0
LTYPE
5
15
100
AcDbSymbolTableRecord
100
AcDbLinetypeTableRecord
2
BYLAYER
70
0
0
LTYPE
5
16
100
AcDbSymbolTableRecord
100
AcDbLinetypeTableRecord
2
DASHED
70
0
3
Dashed __ __ __ __ __ __ __ __ __ __ __ __ __ _
72
65
73
2
40
0.75
49
0.5
74
0
49
-0.25
74
0
0
ENDTAB
0
TABLE
2
LAYER
5
2
100
AcDbSymbolTable
70
2
0
LAYER
5
50
100
AcDbSymbolTableRecord
100
AcDbLayerTableRecord
2
0
70
0
62
7
6
CONTINUOUS
0
ENDTAB
0
TABLE
2
STYLE
5
3
100
AcDbSymbolTable
70
1
0
STYLE
5
11
100
AcDbSymbolTableRecord
100
AcDbTextStyleTableRecord
2
STANDARD
70
0
0
ENDTAB
0
TABLE
2
VIEW
5
6
100
AcDbSymbolTable
70
0
0
ENDTAB
0
TABLE
2
UCS
5
7
100
AcDbSymbolTable
70
0
0
ENDTAB
0
TABLE
2
APPID
5
9
100
AcDbSymbolTable
70
2
0
APPID
5
12
100
AcDbSymbolTableRecord
100
AcDbRegAppTableRecord
2
ACAD
70
0
0
ENDTAB
0
TABLE
2
DIMSTYLE
5
A
100
AcDbSymbolTable
70
1
0
ENDTAB
0
TABLE
2
BLOCK_RECORD
5
1
100
AcDbSymbolTable
70
1
0
BLOCK_RECORD
5
1F
100
AcDbSymbolTableRecord
100
AcDbBlockTableRecord
2
*MODEL_SPACE
0
BLOCK_RECORD
5
1B
100
AcDbSymbolTableRecord
100
AcDbBlockTableRecord
2
*PAPER_SPACE
0
ENDTAB
0
ENDSEC
0
SECTION
2
BLOCKS
0
BLOCK
5
20
100
AcDbEntity
100
AcDbBlockBegin
2
*MODEL_SPACE
0
ENDBLK
5
21
100
AcDbEntity
100
AcDbBlockEnd
0
BLOCK
5
1C
100
AcDbEntity
100
AcDbBlockBegin
2
*PAPER_SPACE
0
ENDBLK
5
1D
100
AcDbEntity
100
AcDbBlockEnd
0
ENDSEC
0
SECTION
2
ENTITIES
0
LWPOLYLINE
5
100
100
AcDbEntity
8
0
100
AcDbPolyline
90
4
70
1
43
0.0
10
564.76989437443069
20
-35.000000000000014
10
552.66989437443067
20
-35.000000000000014
10
552.66989437443067
20
-24.300000000000015
10
564.76989437443069
20
-24.300000000000015
0
CIRCLE
5
101
100
AcDbEntity
8
0
100
AcDbCircle
10
588.51989437443069
20
-28.250000000000014
30
0
40
4.2499999999999716
210
0
220
0
230
1
0
LWPOLYLINE
5
102
100
AcDbEntity
8
0
100
AcDbPolyline
90
92
70
1
43
0.0
10
577.67368421052629
20
-37
10
609.60000000000002
20
-37
10
609.60000000000002
20
-32
10
606.60000000000002
20
-32
10
606.60000000000002
20
-24.000000000000004
10
609.60000000000002
20
-24.000000000000004
10
609.60000000000002
20
-16
10
606.60000000000002
20
-16
10
606.60000000000002
20
-8.0000000000000036
10
609.60000000000002
20
-8.0000000000000018
10
609.59999999999991
20
-3.0000000000000004
10
577.67368421052629
20
-3.0000000000000004
10
577.67368421052629
20
0
10
545.74736842105267
20
0
10
545.74736842105267
20
-3.0000000000000004
10
513.82105263157894
20
-3.0000000000000004
10
513.82105263157894
20
0
10
481.89473684210526
20
0
10
481.89473684210526
20
-3.0000000000000004
10
449.96842105263158
20
-3.0000000000000004
10
449.96842105263158
20
0
10
418.04210526315785
20
0
10
418.04210526315785
20
-3.0000000000000004
10
386.11578947368412
20
-3.0000000000000004
10
386.11578947368412
20
0
10
354.18947368421061
20
0
10
354.18947368421061
20
-3.0000000000000004
10
322.26315789473688
20
-3.0000000000000004
10
322.26315789473688
20
0
10
290.33684210526314
20
0
10
290.33684210526314
20
-3.0000000000000004
10
258.41052631578947
20
-3.0000000000000004
10
258.41052631578947
20
0
10
226.48421052631579
20
0
10
226.48421052631579
20
-3.0000000000000004
10
194.55789473684209
20
-3.0000000000000004
10
194.55789473684209
20
0
10
162.63157894736844
20
0
10
162.63157894736844
20
-3.0000000000000004
10
130.70526315789473
20
-3.0000000000000004
10
130.70526315789473
20
0
10
98.778947368421058
20
0
10
98.778947368421058
20
-3.0000000000000004
10
66.852631578947367
20
-3.0000000000000004
10
66.852631578947367
20
0
10
34.926315789473691
20
0
10
34.926315789473691
20
-3.0000000000000004
10
3.0000000000000071
20
-3.0000000000000004
10
3.0000000000000004
20
-8
10
0
20
-8
10
0
20
-16
10
3.0000000000000004
20
-16
10
3.0000000000000004
20
-24
10
0
20
-24
10
0
20
-32
10
3.0000000000000004
20
-32
10
3.0000000000000426
20
-37
10
34.926315789473605
20
-37
10
34.926315789473605
20
-40
10
66.85263157894731
20
-40
10
66.85263157894731
20
-37
10
98.778947368421015
20
-37
10
98.778947368421015
20
-40
10
130.70526315789471
20
-40
10
130.70526315789471
20
-37
10
162.63157894736844
20
-37
10
162.63157894736844
20
-40
10
194.55789473684206
20
-40
10
194.55789473684206
20
-37
10
226.48421052631576
20
-37
10
226.48421052631576
20
-40
10
258.41052631578947
20
-40
10
258.41052631578947
20
-37
10
290.33684210526314
20
-37
10
290.33684210526314
20
-40
10
322.26315789473682
20
-40
10
322.26315789473682
20
-37
10
354.1894736842105
20
-37
10
354.1894736842105
20
-40
10
386.11578947368412
20
-40
10
386.11578947368412
20
-37
10
418.04210526315785
20
-37
10
418.04210526315785
20
-40
10
449.96842105263158
20
-40
10
449.96842105263158
20
-37
10
481.89473684210526
20
-37
10
481.89473684210526
20
-40
10
513.82105263157894
20
-40
10
513.82105263157894
20
-37
10
545.74736842105267
20
-37
10
545.74736842105267
20
-40
10
577.67368421052629
20
-40
0
ENDSEC
0
SECTION
2
OBJECTS
0
DICTIONARY
5
C
100
AcDbDictionary
3
ACAD_GROUP
350
D
3
ACAD_MLINESTYLE
350
17
0
DICTIONARY
5
D
100
AcDbDictionary
0
DICTIONARY
5
1A
330
C
100
AcDbDictionary
0
DICTIONARY
5
17
100
AcDbDictionary
0
ENDSEC
0
EOF
