0
SECTION
2
HEADER
9
$INSUNITS
70
4
9
$ACADVER
1
AC1014
9
$HANDSEED
5
FFFF
0
ENDSEC
0
SECTION
2
TABLES
0
TABLE
2
VPORT
5
8
100
AcDbSymbolTable
0
ENDTAB
0
TABLE
2
LTYPE
5
5
100
AcDbSymbolTable
0
LTYPE
5
14
100
AcDbSymbolTableRecord
100
AcDbLinetypeTableRecord
2
BYBLOCK
70
0
0
LTYPE
5
15
100
AcDbSymbolTableRecord
100
AcDbLinetypeTableRecord
2
BYLAYER
70
0
0
LTYPE
5
16
100
AcDbSymbolTableRecord
100
AcDbLinetypeTableRecord
2
DASHED
70
0
3
Dashed __ __ __ __ __ __ __ __ __ __ __ __ __ _
72
65
73
2
40
0.75
49
0.5
74
0
49
-0.25
74
0
0
ENDTAB
0
TABLE
2
LAYER
5
2
100
AcDbSymbolTable
70
2
0
LAYER
5
50
100
AcDbSymbolTableRecord
100
AcDbLayerTableRecord
2
0
70
0
62
7
6
CONTINUOUS
0
ENDTAB
0
TABLE
2
STYLE
5
3
100
AcDbSymbolTable
70
1
0
STYLE
5
11
100
AcDbSymbolTableRecord
100
AcDbTextStyleTableRecord
2
STANDARD
70
0
0
ENDTAB
0
TABLE
2
VIEW
5
6
100
AcDbSymbolTable
70
0
0
ENDTAB
0
TABLE
2
UCS
5
7
100
AcDbSymbolTable
70
0
0
ENDTAB
0
TABLE
2
APPID
5
9
100
AcDbSymbolTable
70
2
0
APPID
5
12
100
AcDbSymbolTableRecord
100
AcDbRegAppTableRecord
2
ACAD
70
0
0
ENDTAB
0
TABLE
2
DIMSTYLE
5
A
100
AcDbSymbolTable
70
1
0
ENDTAB
0
TABLE
2
BLOCK_RECORD
5
1
100
AcDbSymbolTable
70
1
0
BLOCK_RECORD
5
1F
100
AcDbSymbolTableRecord
100
AcDbBlockTableRecord
2
*MODEL_SPACE
0
BLOCK_RECORD
5
1B
100
AcDbSymbolTableRecord
100
AcDbBlockTableRecord
2
*PAPER_SPACE
0
ENDTAB
0
ENDSEC
0
SECTION
2
BLOCKS
0
BLOCK
5
20
100
AcDbEntity
100
AcDbBlockBegin
2
*MODEL_SPACE
0
ENDBLK
5
21
100
AcDbEntity
100
AcDbBlockEnd
0
BLOCK
5
1C
100
AcDbEntity
100
AcDbBlockBegin
2
*PAPER_SPACE
0
ENDBLK
5
1D
100
AcDbEntity
100
AcDbBlockEnd
0
ENDSEC
0
SECTION
2
ENTITIES
0
LWPOLYLINE
5
100
100
AcDbEntity
8
0
100
AcDbPolyline
90
4
70
1
43
0.0
10
-500.33917472165354
20
500.23572125535338
42
0.98909509532658668
10
-490.34037689346184
20
500.34535826035642
10
-492.84313440801668
20
515.22797014814864
42
1.0481113177686301
10
-497.83761937890699
20
515.22797014814864
0
LWPOLYLINE
5
101
100
AcDbEntity
8
0
100
AcDbPolyline
90
4
70
1
43
0.0
10
-93.939174721653615
20
500.23572125535338
42
0.98909509532658668
10
-83.940376893461888
20
500.34535826035642
10
-86.443134408016746
20
515.22797014814864
42
1.048111317768659
10
-91.437619378907087
20
515.22797014814864
0
LWPOLYLINE
5
102
100
AcDbEntity
8
0
100
AcDbPolyline
90
4
70
1
43
0.0
10
-59.366694415323131
20
51.33356061390792
10
-517.78885093781241
20
51.33356061390792
10
-517.7888509378123
20
447.40996911680077
10
-59.366694415323096
20
447.40996911680077
0
LWPOLYLINE
5
103
100
AcDbEntity
8
0
100
AcDbPolyline
90
148
70
1
43
0.0
10
-550.76842105263142
20
0
10
-550.76842105263142
20
3.0000000000000071
10
-520.33684210526303
20
3.0000000000000071
10
-520.33684210526303
20
0
10
-489.90526315789464
20
0
10
-489.90526315789464
20
3.0000000000000071
10
-459.47368421052613
20
3.0000000000000071
10
-459.47368421052613
20
0
10
-429.04210526315779
20
0
10
-429.04210526315779
20
3.0000000000000071
10
-398.61052631578934
20
3.0000000000000071
10
-398.61052631578934
20
0
10
-368.17894736842095
20
0
10
-368.17894736842095
20
3.0000000000000071
10
-337.7473684210525
20
3.0000000000000071
10
-337.7473684210525
20
0
10
-307.31578947368411
20
0
10
-307.31578947368411
20
3.0000000000000071
10
-276.88421052631566
20
3.0000000000000071
10
-276.88421052631566
20
0
10
-246.45263157894726
20
0
10
-246.45263157894726
20
3.0000000000000071
10
-216.02105263157887
20
3.0000000000000071
10
-216.02105263157887
20
0
10
-185.58947368421036
20
0
10
-185.58947368421036
20
3.0000000000000071
10
-155.15789473684202
20
3.0000000000000071
10
-155.15789473684202
20
0
10
-124.72631578947357
20
0
10
-124.72631578947357
20
3.0000000000000071
10
-94.294736842105209
20
3.0000000000000071
10
-94.294736842105209
20
0
10
-63.863157894736702
20
0
10
-63.863157894736702
20
3.0000000000000071
10
-33.431578947368337
20
3.0000000000000071
10
-33.431578947368337
20
0
10
0
20
0
10
0
20
30.589473684210517
10
-3.0000000000000071
20
30.589473684210517
10
-3.0000000000000071
20
61.178947368421071
10
0
20
61.178947368421035
10
0
20
91.768421052631624
10
-3.0000000000000071
20
91.768421052631595
10
-3.0000000000000071
20
122.3578947368421
10
0
20
122.35789473684207
10
0
20
152.94736842105266
10
-3.0000000000000071
20
152.94736842105266
10
-3.0000000000000071
20
183.53684210526319
10
0
20
183.53684210526319
10
0
20
214.12631578947369
10
-3.0000000000000071
20
214.12631578947369
10
-3.0000000000000071
20
244.7157894736842
10
0
20
244.7157894736842
10
0
20
275.30526315789479
10
-3.0000000000000071
20
275.30526315789479
10
-3.0000000000000071
20
305.89473684210526
10
0
20
305.89473684210526
10
0
20
336.48421052631585
10
-3.0000000000000071
20
336.48421052631585
10
-3.0000000000000071
20
367.07368421052644
10
0
20
367.07368421052644
10
0
20
397.66315789473686
10
-3.0000000000000071
20
397.66315789473686
10
-3.0000000000000071
20
428.25263157894744
10
0
20
428.25263157894744
10
0
20
458.84210526315798
10
-3.0000000000000071
20
458.84210526315798
10
-3.0000000000000071
20
489.43157894736856
10
0
20
489.43157894736856
10
0
20
520.02105263157898
10
-3.0000000000000071
20
520.02105263157898
10
-3.0000000000000071
20
550.61052631578957
10
0
20
550.61052631578957
10
-2.7117093616972281e-30
20
584.20000000000005
10
-30.747368421052386
20
584.19999999999993
10
-30.747368421052386
20
581.19999999999993
10
-61.494736842105056
20
581.19999999999993
10
-61.494736842105056
20
584.19999999999993
10
-92.242105263157725
20
584.19999999999993
10
-92.242105263157725
20
581.19999999999993
10
-122.9894736842104
20
581.19999999999993
10
-122.9894736842104
20
584.19999999999993
10
-153.73684210526292
20
584.19999999999993
10
-153.73684210526292
20
581.19999999999993
10
-184.48421052631559
20
581.19999999999993
10
-184.48421052631559
20
584.19999999999993
10
-215.23157894736826
20
584.19999999999993
10
-215.23157894736826
20
581.19999999999993
10
-245.97894736842093
20
581.19999999999993
10
-245.97894736842093
20
584.19999999999993
10
-276.72631578947352
20
584.19999999999993
10
-276.72631578947352
20
581.19999999999993
10
-307.47368421052619
20
581.19999999999993
10
-307.47368421052619
20
584.19999999999993
10
-338.2210526315788
20
584.19999999999993
10
-338.2210526315788
20
581.19999999999993
10
-368.96842105263147
20
581.19999999999993
10
-368.96842105263147
20
584.19999999999993
10
-399.71578947368408
20
584.19999999999993
10
-399.71578947368408
20
581.19999999999993
10
-430.46315789473675
20
581.19999999999993
10
-430.46315789473675
20
584.19999999999993
10
-461.21052631578937
20
584.19999999999993
10
-461.21052631578937
20
581.19999999999993
10
-491.95789473684204
20
581.19999999999993
10
-491.95789473684204
20
584.19999999999993
10
-522.70526315789459
20
584.19999999999993
10
-522.70526315789459
20
581.19999999999993
10
-553.45263157894715
20
581.19999999999993
10
-553.45263157894715
20
584.19999999999993
10
-584.20000000000005
20
584.20000000000005
10
-584.19999999999993
20
550.61052631578957
10
-581.19999999999993
20
550.61052631578957
10
-581.19999999999993
20
520.02105263157898
10
-584.19999999999993
20
520.02105263157898
10
-584.19999999999993
20
489.43157894736856
10
-581.19999999999993
20
489.43157894736856
10
-581.19999999999993
20
458.84210526315798
10
-584.19999999999993
20
458.84210526315798
10
-584.19999999999993
20
428.25263157894744
10
-581.19999999999993
20
428.25263157894744
10
-581.19999999999993
20
397.66315789473686
10
-584.19999999999993
20
397.66315789473686
10
-584.19999999999993
20
367.07368421052644
10
-581.19999999999993
20
367.07368421052644
10
-581.19999999999993
20
336.48421052631585
10
-584.19999999999993
20
336.48421052631585
10
-584.19999999999993
20
305.89473684210526
10
-581.19999999999993
20
305.89473684210526
10
-581.19999999999993
20
275.30526315789479
10
-584.19999999999993
20
275.30526315789479
10
-584.19999999999993
20
244.7157894736842
10
-581.19999999999993
20
244.7157894736842
10
-581.19999999999993
20
214.12631578947369
10
-584.19999999999993
20
214.12631578947369
10
-584.19999999999993
20
183.53684210526319
10
-581.19999999999993
20
183.53684210526319
10
-581.19999999999993
20
152.94736842105266
10
-584.19999999999993
20
152.94736842105266
10
-584.19999999999993
20
122.3578947368421
10
-581.19999999999993
20
122.3578947368421
10
-581.19999999999993
20
91.768421052631595
10
-584.19999999999993
20
91.768421052631595
10
-584.19999999999993
20
61.178947368421063
10
-581.19999999999993
20
61.178947368421071
10
-581.19999999999993
20
30.589473684210517
10
-584.19999999999993
20
30.589473684210525
10
-584.20000000000005
20
0
0
ENDSEC
0
SECTION
2
OBJECTS
0
DICTIONARY
5
C
100
AcDbDictionary
3
ACAD_GROUP
350
D
3
ACAD_MLINESTYLE
350
17
0
DICTIONARY
5
D
100
AcDbDictionary
0
DICTIONARY
5
1A
330
C
100
AcDbDictionary
0
DICTIONARY
5
17
100
AcDbDictionary
0
ENDSEC
0
EOF
