0
SECTION
2
HEADER
9
$INSUNITS
70
4
9
$ACADVER
1
AC1014
9
$HANDSEED
5
FFFF
0
ENDSEC
0
SECTION
2
TABLES
0
TABLE
2
VPORT
5
8
100
AcDbSymbolTable
0
ENDTAB
0
TABLE
2
LTYPE
5
5
100
AcDbSymbolTable
0
LTYPE
5
14
100
AcDbSymbolTableRecord
100
AcDbLinetypeTableRecord
2
BYBLOCK
70
0
0
LTYPE
5
15
100
AcDbSymbolTableRecord
100
AcDbLinetypeTableRecord
2
BYLAYER
70
0
0
LTYPE
5
16
100
AcDbSymbolTableRecord
100
AcDbLinetypeTableRecord
2
DASHED
70
0
3
Dashed __ __ __ __ __ __ __ __ __ __ __ __ __ _
72
65
73
2
40
0.75
49
0.5
74
0
49
-0.25
74
0
0
ENDTAB
0
TABLE
2
LAYER
5
2
100
AcDbSymbolTable
70
2
0
LAYER
5
50
100
AcDbSymbolTableRecord
100
AcDbLayerTableRecord
2
0
70
0
62
7
6
CONTINUOUS
0
ENDTAB
0
TABLE
2
STYLE
5
3
100
AcDbSymbolTable
70
1
0
STYLE
5
11
100
AcDbSymbolTableRecord
100
AcDbTextStyleTableRecord
2
STANDARD
70
0
0
ENDTAB
0
TABLE
2
VIEW
5
6
100
AcDbSymbolTable
70
0
0
ENDTAB
0
TABLE
2
UCS
5
7
100
AcDbSymbolTable
70
0
0
ENDTAB
0
TABLE
2
APPID
5
9
100
AcDbSymbolTable
70
2
0
APPID
5
12
100
AcDbSymbolTableRecord
100
AcDbRegAppTableRecord
2
ACAD
70
0
0
ENDTAB
0
TABLE
2
DIMSTYLE
5
A
100
AcDbSymbolTable
70
1
0
ENDTAB
0
TABLE
2
BLOCK_RECORD
5
1
100
AcDbSymbolTable
70
1
0
BLOCK_RECORD
5
1F
100
AcDbSymbolTableRecord
100
AcDbBlockTableRecord
2
*MODEL_SPACE
0
BLOCK_RECORD
5
1B
100
AcDbSymbolTableRecord
100
AcDbBlockTableRecord
2
*PAPER_SPACE
0
ENDTAB
0
ENDSEC
0
SECTION
2
BLOCKS
0
BLOCK
5
20
100
AcDbEntity
100
AcDbBlockBegin
2
*MODEL_SPACE
0
ENDBLK
5
21
100
AcDbEntity
100
AcDbBlockEnd
0
BLOCK
5
1C
100
AcDbEntity
100
AcDbBlockBegin
2
*PAPER_SPACE
0
ENDBLK
5
1D
100
AcDbEntity
100
AcDbBlockEnd
0
ENDSEC
0
SECTION
2
ENTITIES
0
LWPOLYLINE
5
100
100
AcDbEntity
8
0
100
AcDbPolyline
90
148
70
1
43
0.0
10
63.863157894736844
20
3.0000000000000071
10
63.863157894736851
20
0
10
94.29473684210528
20
0
10
94.29473684210528
20
3.0000000000000071
10
124.72631578947372
20
3.0000000000000071
10
124.72631578947372
20
0
10
155.15789473684211
20
0
10
155.15789473684211
20
3.0000000000000071
10
185.58947368421056
20
3.0000000000000071
10
185.58947368421056
20
0
10
216.02105263157898
20
0
10
216.02105263157898
20
3.0000000000000071
10
246.45263157894743
20
3.0000000000000071
10
246.45263157894743
20
0
10
276.88421052631583
20
0
10
276.88421052631583
20
3.0000000000000071
10
307.31578947368428
20
3.0000000000000071
10
307.31578947368428
20
0
10
337.74736842105267
20
0
10
337.74736842105261
20
3.0000000000000071
10
368.17894736842101
20
3.0000000000000071
10
368.17894736842106
20
0
10
398.61052631578957
20
0
10
398.61052631578951
20
3.0000000000000071
10
429.04210526315785
20
3.0000000000000071
10
429.04210526315796
20
0
10
459.4736842105263
20
0
10
459.4736842105263
20
3.0000000000000071
10
489.90526315789464
20
3.0000000000000071
10
489.90526315789464
20
0
10
520.33684210526314
20
0
10
520.33684210526314
20
3.0000000000000071
10
550.76842105263154
20
3.0000000000000071
10
550.76842105263154
20
0
10
584.20000000000005
20
-2.7117093616972281e-30
10
584.19999999999993
20
30.589473684210304
10
581.19999999999993
20
30.589473684210304
10
581.19999999999993
20
61.178947368420893
10
584.19999999999993
20
61.178947368420893
10
584.19999999999993
20
91.768421052631339
10
581.19999999999993
20
91.768421052631339
10
581.19999999999993
20
122.35789473684193
10
584.19999999999993
20
122.35789473684193
10
584.19999999999993
20
152.94736842105243
10
581.19999999999993
20
152.94736842105243
10
581.19999999999993
20
183.53684210526302
10
584.19999999999993
20
183.53684210526302
10
584.19999999999993
20
214.12631578947349
10
581.19999999999993
20
214.12631578947349
10
581.19999999999993
20
244.71578947368408
10
584.19999999999993
20
244.71578947368408
10
584.19999999999993
20
275.30526315789461
10
581.19999999999993
20
275.30526315789461
10
581.19999999999993
20
305.89473684210515
10
584.19999999999993
20
305.89473684210515
10
584.19999999999993
20
336.48421052631568
10
581.19999999999993
20
336.48421052631568
10
581.19999999999993
20
367.07368421052621
10
584.19999999999993
20
367.07368421052621
10
584.19999999999993
20
397.66315789473674
10
581.19999999999993
20
397.66315789473674
10
581.19999999999993
20
428.25263157894722
10
584.19999999999993
20
428.25263157894722
10
584.19999999999993
20
458.8421052631578
10
581.19999999999993
20
458.8421052631578
10
581.19999999999993
20
489.43157894736828
10
584.19999999999993
20
489.43157894736828
10
584.19999999999993
20
520.02105263157887
10
581.19999999999993
20
520.02105263157887
10
581.19999999999993
20
550.61052631578934
10
584.19999999999993
20
550.61052631578934
10
584.19999999999982
20
581.19999999999993
10
553.45263157894715
20
581.19999999999993
10
553.45263157894715
20
584.19999999999993
10
522.70526315789459
20
584.19999999999993
10
522.70526315789459
20
581.19999999999993
10
491.95789473684204
20
581.19999999999993
10
491.95789473684204
20
584.19999999999993
10
461.21052631578937
20
584.19999999999993
10
461.21052631578937
20
581.19999999999993
10
430.4631578947367
20
581.19999999999993
10
430.4631578947367
20
584.19999999999993
10
399.71578947368408
20
584.19999999999993
10
399.71578947368408
20
581.19999999999993
10
368.96842105263141
20
581.19999999999993
10
368.96842105263141
20
584.19999999999993
10
338.2210526315788
20
584.19999999999993
10
338.2210526315788
20
581.19999999999993
10
307.47368421052613
20
581.19999999999993
10
307.47368421052613
20
584.19999999999993
10
276.72631578947352
20
584.19999999999993
10
276.72631578947352
20
581.19999999999993
10
245.97894736842085
20
581.19999999999993
10
245.97894736842085
20
584.19999999999993
10
215.23157894736826
20
584.19999999999993
10
215.23157894736826
20
581.19999999999993
10
184.48421052631559
20
581.19999999999993
10
184.48421052631559
20
584.19999999999993
10
153.73684210526301
20
584.19999999999993
10
153.73684210526301
20
581.19999999999993
10
122.98947368421032
20
581.19999999999993
10
122.98947368421032
20
584.19999999999993
10
92.242105263157725
20
584.19999999999993
10
92.242105263157725
20
581.19999999999993
10
61.494736842105056
20
581.19999999999993
10
61.494736842105056
20
584.19999999999993
10
30.747368421052457
20
584.19999999999993
10
30.747368421052457
20
581.19999999999993
10
-1.4210854715202004e-13
20
581.19999999999993
10
0
20
550.61052631578934
10
3.0000000000000071
20
550.61052631578934
10
3.0000000000000071
20
520.02105263157887
10
0
20
520.02105263157887
10
0
20
489.43157894736828
10
3.0000000000000071
20
489.43157894736828
10
3.0000000000000071
20
458.8421052631578
10
0
20
458.8421052631578
10
0
20
428.25263157894722
10
3.0000000000000071
20
428.25263157894722
10
3.0000000000000071
20
397.66315789473674
10
0
20
397.66315789473674
10
0
20
367.07368421052621
10
3.0000000000000071
20
367.07368421052621
10
3.0000000000000071
20
336.48421052631568
10
0
20
336.48421052631568
10
0
20
305.89473684210515
10
3.0000000000000071
20
305.89473684210515
10
3.0000000000000071
20
275.30526315789461
10
0
20
275.30526315789461
10
0
20
244.71578947368408
10
3.0000000000000071
20
244.71578947368408
10
3.0000000000000071
20
214.12631578947349
10
0
20
214.12631578947349
10
0
20
183.53684210526302
10
3.0000000000000071
20
183.53684210526302
10
3.0000000000000071
20
152.94736842105243
10
0
20
152.94736842105243
10
0
20
122.35789473684193
10
3.0000000000000071
20
122.35789473684193
10
3.0000000000000071
20
91.768421052631339
10
0
20
91.768421052631339
10
0
20
61.178947368420893
10
3.0000000000000071
20
61.178947368420893
10
3.0000000000000071
20
30.589473684210304
10
0
20
30.589473684210304
10
0
20
0
10
33.431578947368436
20
0
10
33.431578947368443
20
3.0000000000000071
0
CIRCLE
5
101
100
AcDbEntity
8
0
100
AcDbCircle
10
35.999999999999837
20
36.049999999999976
30
0
40
1.5999999999999881
210
0
220
0
230
1
0
CIRCLE
5
102
100
AcDbEntity
8
0
100
AcDbCircle
10
230.03999999999959
20
113.39999999999688
30
0
40
1.6000000000000014
210
0
220
0
230
1
0
CIRCLE
5
103
100
AcDbEntity
8
0
100
AcDbCircle
10
35.999999999999865
20
144.74999999999994
30
0
40
1.5999999999999881
210
0
220
0
230
1
0
CIRCLE
5
104
100
AcDbEntity
8
0
100
AcDbCircle
10
230.03999999999957
20
222.09999999999681
30
0
40
1.6000000000000014
210
0
220
0
230
1
0
CIRCLE
5
105
100
AcDbEntity
8
0
100
AcDbCircle
10
35.999999999999915
20
253.44999999999973
30
0
40
1.5999999999999881
210
0
220
0
230
1
0
CIRCLE
5
106
100
AcDbEntity
8
0
100
AcDbCircle
10
230.03999999999996
20
330.80000000000035
30
0
40
1.6000000000000014
210
0
220
0
230
1
0
CIRCLE
5
107
100
AcDbEntity
8
0
100
AcDbCircle
10
36
20
362.15000000000003
30
0
40
1.5999999999999881
210
0
220
0
230
1
0
CIRCLE
5
108
100
AcDbEntity
8
0
100
AcDbCircle
10
230.03999999999996
20
439.50000000000023
30
0
40
1.6000000000000014
210
0
220
0
230
1
0
CIRCLE
5
109
100
AcDbEntity
8
0
100
AcDbCircle
10
230.03999999999996
20
548.20000000000005
30
0
40
1.6000000000000014
210
0
220
0
230
1
0
CIRCLE
5
110
100
AcDbEntity
8
0
100
AcDbCircle
10
36
20
470.84999999999985
30
0
40
1.5999999999999881
210
0
220
0
230
1
0
ENDSEC
0
SECTION
2
OBJECTS
0
DICTIONARY
5
C
100
AcDbDictionary
3
ACAD_GROUP
350
D
3
ACAD_MLINESTYLE
350
17
0
DICTIONARY
5
D
100
AcDbDictionary
0
DICTIONARY
5
1A
330
C
100
AcDbDictionary
0
DICTIONARY
5
17
100
AcDbDictionary
0
ENDSEC
0
EOF
