0
SECTION
2
HEADER
9
$INSUNITS
70
4
9
$ACADVER
1
AC1014
9
$HANDSEED
5
FFFF
0
ENDSEC
0
SECTION
2
TABLES
0
TABLE
2
VPORT
5
8
100
AcDbSymbolTable
0
ENDTAB
0
TABLE
2
LTYPE
5
5
100
AcDbSymbolTable
0
LTYPE
5
14
100
AcDbSymbolTableRecord
100
AcDbLinetypeTableRecord
2
BYBLOCK
70
0
0
LTYPE
5
15
100
AcDbSymbolTableRecord
100
AcDbLinetypeTableRecord
2
BYLAYER
70
0
0
LTYPE
5
16
100
AcDbSymbolTableRecord
100
AcDbLinetypeTableRecord
2
DASHED
70
0
3
Dashed __ __ __ __ __ __ __ __ __ __ __ __ __ _
72
65
73
2
40
0.75
49
0.5
74
0
49
-0.25
74
0
0
ENDTAB
0
TABLE
2
LAYER
5
2
100
AcDbSymbolTable
70
2
0
LAYER
5
50
100
AcDbSymbolTableRecord
100
AcDbLayerTableRecord
2
0
70
0
62
7
6
CONTINUOUS
0
ENDTAB
0
TABLE
2
STYLE
5
3
100
AcDbSymbolTable
70
1
0
STYLE
5
11
100
AcDbSymbolTableRecord
100
AcDbTextStyleTableRecord
2
STANDARD
70
0
0
ENDTAB
0
TABLE
2
VIEW
5
6
100
AcDbSymbolTable
70
0
0
ENDTAB
0
TABLE
2
UCS
5
7
100
AcDbSymbolTable
70
0
0
ENDTAB
0
TABLE
2
APPID
5
9
100
AcDbSymbolTable
70
2
0
APPID
5
12
100
AcDbSymbolTableRecord
100
AcDbRegAppTableRecord
2
ACAD
70
0
0
ENDTAB
0
TABLE
2
DIMSTYLE
5
A
100
AcDbSymbolTable
70
1
0
ENDTAB
0
TABLE
2
BLOCK_RECORD
5
1
100
AcDbSymbolTable
70
1
0
BLOCK_RECORD
5
1F
100
AcDbSymbolTableRecord
100
AcDbBlockTableRecord
2
*MODEL_SPACE
0
BLOCK_RECORD
5
1B
100
AcDbSymbolTableRecord
100
AcDbBlockTableRecord
2
*PAPER_SPACE
0
ENDTAB
0
ENDSEC
0
SECTION
2
BLOCKS
0
BLOCK
5
20
100
AcDbEntity
100
AcDbBlockBegin
2
*MODEL_SPACE
0
ENDBLK
5
21
100
AcDbEntity
100
AcDbBlockEnd
0
BLOCK
5
1C
100
AcDbEntity
100
AcDbBlockBegin
2
*PAPER_SPACE
0
ENDBLK
5
1D
100
AcDbEntity
100
AcDbBlockEnd
0
ENDSEC
0
SECTION
2
ENTITIES
0
LWPOLYLINE
5
100
100
AcDbEntity
8
0
100
AcDbPolyline
90
148
70
1
43
0.0
10
66.852631578947381
20
-3.0000000000000071
10
66.852631578947367
20
0
10
98.778947368421058
20
0
10
98.778947368421058
20
-3.0000000000000071
10
130.70526315789471
20
-3.0000000000000071
10
130.70526315789471
20
0
10
162.63157894736844
20
0
10
162.63157894736844
20
-3.0000000000000071
10
194.55789473684212
20
-3.0000000000000071
10
194.55789473684212
20
0
10
226.48421052631576
20
0
10
226.48421052631576
20
-3.0000000000000071
10
258.41052631578947
20
-3.0000000000000071
10
258.41052631578947
20
0
10
290.33684210526314
20
0
10
290.33684210526314
20
-3.0000000000000071
10
322.26315789473688
20
-3.0000000000000071
10
322.26315789473688
20
0
10
354.18947368421061
20
0
10
354.18947368421061
20
-3.0000000000000071
10
386.11578947368429
20
-3.0000000000000071
10
386.11578947368429
20
0
10
418.04210526315785
20
0
10
418.04210526315785
20
-3.0000000000000071
10
449.96842105263158
20
-3.0000000000000071
10
449.96842105263158
20
0
10
481.89473684210526
20
0
10
481.89473684210526
20
-3.0000000000000071
10
513.82105263157894
20
-3.0000000000000071
10
513.82105263157894
20
0
10
545.74736842105267
20
0
10
545.74736842105267
20
-3.0000000000000071
10
577.6736842105264
20
-3.0000000000000071
10
577.6736842105264
20
0
10
609.60000000000002
20
0
10
609.60000000000002
20
-34.926315789473684
10
606.60000000000002
20
-34.926315789473676
10
606.60000000000002
20
-66.852631578947381
10
609.60000000000002
20
-66.852631578947367
10
609.60000000000002
20
-98.778947368421058
10
606.60000000000002
20
-98.778947368421058
10
606.60000000000002
20
-130.70526315789471
10
609.60000000000002
20
-130.70526315789471
10
609.60000000000002
20
-162.63157894736844
10
606.60000000000002
20
-162.63157894736844
10
606.60000000000002
20
-194.55789473684212
10
609.60000000000002
20
-194.55789473684212
10
609.60000000000002
20
-226.48421052631576
10
606.60000000000002
20
-226.48421052631576
10
606.60000000000002
20
-258.41052631578947
10
609.60000000000002
20
-258.41052631578947
10
609.60000000000002
20
-290.33684210526314
10
606.60000000000002
20
-290.33684210526314
10
606.60000000000002
20
-322.26315789473688
10
609.60000000000002
20
-322.26315789473688
10
609.60000000000002
20
-354.18947368421061
10
606.60000000000002
20
-354.18947368421061
10
606.60000000000002
20
-386.11578947368429
10
609.60000000000002
20
-386.11578947368429
10
609.60000000000002
20
-418.04210526315785
10
606.60000000000002
20
-418.04210526315785
10
606.60000000000002
20
-449.96842105263158
10
609.60000000000002
20
-449.96842105263158
10
609.60000000000002
20
-481.89473684210526
10
606.60000000000002
20
-481.89473684210526
10
606.60000000000002
20
-513.82105263157894
10
609.60000000000002
20
-513.82105263157894
10
609.60000000000002
20
-545.74736842105267
10
606.60000000000002
20
-545.74736842105267
10
606.60000000000002
20
-577.6736842105264
10
609.60000000000002
20
-577.6736842105264
10
609.60000000000002
20
-609.60000000000002
10
574.83157894736848
20
-609.60000000000002
10
574.83157894736848
20
-606.60000000000002
10
543.06315789473683
20
-606.60000000000002
10
543.06315789473683
20
-609.60000000000002
10
511.29473684210529
20
-609.60000000000002
10
511.29473684210524
20
-606.60000000000002
10
479.52631578947376
20
-606.60000000000002
10
479.5263157894737
20
-609.60000000000002
10
447.7578947368421
20
-609.60000000000002
10
447.7578947368421
20
-606.60000000000002
10
415.98947368421051
20
-606.60000000000002
10
415.98947368421051
20
-609.60000000000002
10
384.22105263157897
20
-609.60000000000002
10
384.22105263157897
20
-606.60000000000002
10
352.45263157894738
20
-606.60000000000002
10
352.45263157894738
20
-609.60000000000002
10
320.68421052631578
20
-609.60000000000002
10
320.68421052631578
20
-606.60000000000002
10
288.91578947368424
20
-606.60000000000002
10
288.91578947368424
20
-609.60000000000002
10
257.14736842105259
20
-609.60000000000002
10
257.14736842105259
20
-606.60000000000002
10
225.378947368421
20
-606.60000000000002
10
225.378947368421
20
-609.60000000000002
10
193.61052631578951
20
-609.60000000000002
10
193.61052631578951
20
-606.60000000000002
10
161.84210526315786
20
-606.60000000000002
10
161.84210526315786
20
-609.60000000000002
10
130.07368421052632
20
-609.60000000000002
10
130.07368421052632
20
-606.60000000000002
10
98.3052631578947
20
-606.60000000000002
10
98.3052631578947
20
-609.60000000000002
10
66.536842105263148
20
-609.60000000000002
10
66.536842105263148
20
-606.60000000000002
10
34.768421052631524
20
-606.60000000000002
10
34.768421052631524
20
-609.60000000000002
10
0
20
-609.60000000000002
10
0
20
-577.51578947368421
10
3.0000000000000071
20
-577.51578947368421
10
3.0000000000000071
20
-545.43157894736839
10
0
20
-545.43157894736839
10
0
20
-513.34736842105269
10
3.0000000000000071
20
-513.34736842105258
10
3.0000000000000071
20
-481.26315789473676
10
0
20
-481.26315789473688
10
0
20
-449.17894736842101
10
3.0000000000000071
20
-449.17894736842101
10
3.0000000000000071
20
-417.09473684210525
10
0
20
-417.09473684210525
10
0
20
-385.01052631578943
10
3.0000000000000071
20
-385.01052631578943
10
3.0000000000000071
20
-352.92631578947362
10
0
20
-352.92631578947362
10
0
20
-320.84210526315786
10
3.0000000000000071
20
-320.84210526315786
10
3.0000000000000071
20
-288.7578947368421
10
0
20
-288.7578947368421
10
0
20
-256.67368421052629
10
3.0000000000000071
20
-256.67368421052629
10
3.0000000000000071
20
-224.5894736842105
10
0
20
-224.5894736842105
10
0
20
-192.50526315789472
10
3.0000000000000071
20
-192.50526315789472
10
3.0000000000000071
20
-160.42105263157893
10
0
20
-160.42105263157893
10
0
20
-128.33684210526314
10
3.0000000000000071
20
-128.33684210526314
10
3.0000000000000071
20
-96.252631578947359
10
0
20
-96.252631578947359
10
0
20
-64.168421052631572
10
3.0000000000000071
20
-64.168421052631572
10
3.0000000000000071
20
-32.084210526315786
10
0
20
-32.084210526315786
10
0
20
0
10
34.926315789473684
20
0
10
34.926315789473676
20
-3.0000000000000071
0
ENDSEC
0
SECTION
2
OBJECTS
0
DICTIONARY
5
C
100
AcDbDictionary
3
ACAD_GROUP
350
D
3
ACAD_MLINESTYLE
350
17
0
DICTIONARY
5
D
100
AcDbDictionary
0
DICTIONARY
5
1A
330
C
100
AcDbDictionary
0
DICTIONARY
5
17
100
AcDbDictionary
0
ENDSEC
0
EOF
