0
SECTION
2
HEADER
9
$INSUNITS
70
4
9
$ACADVER
1
AC1014
9
$HANDSEED
5
FFFF
0
ENDSEC
0
SECTION
2
TABLES
0
TABLE
2
VPORT
5
8
100
AcDbSymbolTable
0
ENDTAB
0
TABLE
2
LTYPE
5
5
100
AcDbSymbolTable
0
LTYPE
5
14
100
AcDbSymbolTableRecord
100
AcDbLinetypeTableRecord
2
BYBLOCK
70
0
0
LTYPE
5
15
100
AcDbSymbolTableRecord
100
AcDbLinetypeTableRecord
2
BYLAYER
70
0
0
LTYPE
5
16
100
AcDbSymbolTableRecord
100
AcDbLinetypeTableRecord
2
DASHED
70
0
3
Dashed __ __ __ __ __ __ __ __ __ __ __ __ __ _
72
65
73
2
40
0.75
49
0.5
74
0
49
-0.25
74
0
0
ENDTAB
0
TABLE
2
LAYER
5
2
100
AcDbSymbolTable
70
2
0
LAYER
5
50
100
AcDbSymbolTableRecord
100
AcDbLayerTableRecord
2
0
70
0
62
7
6
CONTINUOUS
0
ENDTAB
0
TABLE
2
STYLE
5
3
100
AcDbSymbolTable
70
1
0
STYLE
5
11
100
AcDbSymbolTableRecord
100
AcDbTextStyleTableRecord
2
STANDARD
70
0
0
ENDTAB
0
TABLE
2
VIEW
5
6
100
AcDbSymbolTable
70
0
0
ENDTAB
0
TABLE
2
UCS
5
7
100
AcDbSymbolTable
70
0
0
ENDTAB
0
TABLE
2
APPID
5
9
100
AcDbSymbolTable
70
2
0
APPID
5
12
100
AcDbSymbolTableRecord
100
AcDbRegAppTableRecord
2
ACAD
70
0
0
ENDTAB
0
TABLE
2
DIMSTYLE
5
A
100
AcDbSymbolTable
70
1
0
ENDTAB
0
TABLE
2
BLOCK_RECORD
5
1
100
AcDbSymbolTable
70
1
0
BLOCK_RECORD
5
1F
100
AcDbSymbolTableRecord
100
AcDbBlockTableRecord
2
*MODEL_SPACE
0
BLOCK_RECORD
5
1B
100
AcDbSymbolTableRecord
100
AcDbBlockTableRecord
2
*PAPER_SPACE
0
ENDTAB
0
ENDSEC
0
SECTION
2
BLOCKS
0
BLOCK
5
20
100
AcDbEntity
100
AcDbBlockBegin
2
*MODEL_SPACE
0
ENDBLK
5
21
100
AcDbEntity
100
AcDbBlockEnd
0
BLOCK
5
1C
100
AcDbEntity
100
AcDbBlockBegin
2
*PAPER_SPACE
0
ENDBLK
5
1D
100
AcDbEntity
100
AcDbBlockEnd
0
ENDSEC
0
SECTION
2
ENTITIES
0
LWPOLYLINE
5
100
100
AcDbEntity
8
0
100
AcDbPolyline
90
92
70
1
43
0.0
10
-37
20
32.084210526315786
10
-37
20
0
10
-32
20
0
10
-32
20
3.0000000000000071
10
-24.000000000000004
20
3.0000000000000071
10
-24.000000000000004
20
0
10
-16
20
0
10
-16
20
3.0000000000000071
10
-8.0000000000000036
20
3.0000000000000071
10
-8.0000000000000018
20
0
10
-3.0000000000000004
20
0
10
-3.0000000000000004
20
32.084210526315786
10
0
20
32.084210526315786
10
0
20
64.168421052631572
10
-3.0000000000000004
20
64.168421052631572
10
-3.0000000000000004
20
96.252631578947359
10
0
20
96.252631578947359
10
0
20
128.33684210526314
10
-3.0000000000000004
20
128.33684210526314
10
-3.0000000000000004
20
160.42105263157893
10
0
20
160.42105263157893
10
0
20
192.50526315789472
10
-3.0000000000000004
20
192.50526315789472
10
-3.0000000000000004
20
224.5894736842105
10
0
20
224.5894736842105
10
0
20
256.67368421052629
10
-3.0000000000000004
20
256.67368421052629
10
-3.0000000000000004
20
288.7578947368421
10
0
20
288.7578947368421
10
0
20
320.84210526315786
10
-3.0000000000000004
20
320.84210526315786
10
-3.0000000000000004
20
352.92631578947362
10
0
20
352.92631578947362
10
0
20
385.01052631578943
10
-3.0000000000000004
20
385.01052631578943
10
-3.0000000000000004
20
417.09473684210525
10
0
20
417.09473684210525
10
0
20
449.17894736842101
10
-3.0000000000000004
20
449.17894736842101
10
-3.0000000000000004
20
481.26315789473688
10
0
20
481.26315789473688
10
0
20
513.34736842105269
10
-3.0000000000000004
20
513.34736842105269
10
-3.0000000000000004
20
545.43157894736839
10
0
20
545.43157894736839
10
0
20
577.51578947368421
10
-3.0000000000000004
20
577.51578947368421
10
-3.0000000000000004
20
609.60000000000002
10
-7.9999999999999982
20
609.60000000000002
10
-7.9999999999999982
20
606.60000000000002
10
-15.999999999999996
20
606.60000000000002
10
-15.999999999999996
20
609.60000000000002
10
-24
20
609.60000000000002
10
-24
20
606.60000000000002
10
-31.999999999999996
20
606.60000000000002
10
-31.999999999999996
20
609.60000000000002
10
-37
20
609.60000000000002
10
-37
20
577.51578947368421
10
-40
20
577.51578947368421
10
-40
20
545.43157894736839
10
-37
20
545.43157894736839
10
-37
20
513.34736842105269
10
-40
20
513.34736842105269
10
-40
20
481.26315789473688
10
-37
20
481.26315789473688
10
-37
20
449.17894736842106
10
-40
20
449.17894736842106
10
-40
20
417.09473684210531
10
-37
20
417.09473684210531
10
-37
20
385.01052631578949
10
-40
20
385.01052631578949
10
-40
20
352.92631578947373
10
-37
20
352.92631578947373
10
-37
20
320.84210526315792
10
-40
20
320.84210526315792
10
-40
20
288.75789473684216
10
-37
20
288.75789473684216
10
-37
20
256.67368421052635
10
-40
20
256.67368421052635
10
-40
20
224.58947368421059
10
-37
20
224.58947368421059
10
-37
20
192.50526315789477
10
-40
20
192.50526315789477
10
-40
20
160.42105263157902
10
-37
20
160.42105263157902
10
-37
20
128.33684210526314
10
-40
20
128.33684210526314
10
-40
20
96.252631578947359
10
-37
20
96.252631578947359
10
-37
20
64.168421052631572
10
-40
20
64.168421052631572
10
-40
20
32.084210526315786
0
ENDSEC
0
SECTION
2
OBJECTS
0
DICTIONARY
5
C
100
AcDbDictionary
3
ACAD_GROUP
350
D
3
ACAD_MLINESTYLE
350
17
0
DICTIONARY
5
D
100
AcDbDictionary
0
DICTIONARY
5
1A
330
C
100
AcDbDictionary
0
DICTIONARY
5
17
100
AcDbDictionary
0
ENDSEC
0
EOF
