0
SECTION
2
HEADER
9
$INSUNITS
70
4
9
$ACADVER
1
AC1014
9
$HANDSEED
5
FFFF
0
ENDSEC
0
SECTION
2
TABLES
0
TABLE
2
VPORT
5
8
100
AcDbSymbolTable
0
ENDTAB
0
TABLE
2
LTYPE
5
5
100
AcDbSymbolTable
0
LTYPE
5
14
100
AcDbSymbolTableRecord
100
AcDbLinetypeTableRecord
2
BYBLOCK
70
0
0
LTYPE
5
15
100
AcDbSymbolTableRecord
100
AcDbLinetypeTableRecord
2
BYLAYER
70
0
0
LTYPE
5
16
100
AcDbSymbolTableRecord
100
AcDbLinetypeTableRecord
2
DASHED
70
0
3
Dashed __ __ __ __ __ __ __ __ __ __ __ __ __ _
72
65
73
2
40
0.75
49
0.5
74
0
49
-0.25
74
0
0
ENDTAB
0
TABLE
2
LAYER
5
2
100
AcDbSymbolTable
70
2
0
LAYER
5
50
100
AcDbSymbolTableRecord
100
AcDbLayerTableRecord
2
0
70
0
62
7
6
CONTINUOUS
0
ENDTAB
0
TABLE
2
STYLE
5
3
100
AcDbSymbolTable
70
1
0
STYLE
5
11
100
AcDbSymbolTableRecord
100
AcDbTextStyleTableRecord
2
STANDARD
70
0
0
ENDTAB
0
TABLE
2
VIEW
5
6
100
AcDbSymbolTable
70
0
0
ENDTAB
0
TABLE
2
UCS
5
7
100
AcDbSymbolTable
70
0
0
ENDTAB
0
TABLE
2
APPID
5
9
100
AcDbSymbolTable
70
2
0
APPID
5
12
100
AcDbSymbolTableRecord
100
AcDbRegAppTableRecord
2
ACAD
70
0
0
ENDTAB
0
TABLE
2
DIMSTYLE
5
A
100
AcDbSymbolTable
70
1
0
ENDTAB
0
TABLE
2
BLOCK_RECORD
5
1
100
AcDbSymbolTable
70
1
0
BLOCK_RECORD
5
1F
100
AcDbSymbolTableRecord
100
AcDbBlockTableRecord
2
*MODEL_SPACE
0
BLOCK_RECORD
5
1B
100
AcDbSymbolTableRecord
100
AcDbBlockTableRecord
2
*PAPER_SPACE
0
ENDTAB
0
ENDSEC
0
SECTION
2
BLOCKS
0
BLOCK
5
20
100
AcDbEntity
100
AcDbBlockBegin
2
*MODEL_SPACE
0
ENDBLK
5
21
100
AcDbEntity
100
AcDbBlockEnd
0
BLOCK
5
1C
100
AcDbEntity
100
AcDbBlockBegin
2
*PAPER_SPACE
0
ENDBLK
5
1D
100
AcDbEntity
100
AcDbBlockEnd
0
ENDSEC
0
SECTION
2
ENTITIES
0
LWPOLYLINE
5
100
100
AcDbEntity
8
0
100
AcDbPolyline
90
92
70
1
43
0.0
10
-553.45263157894715
20
-37
10
-553.45263157894715
20
-39.999999999999993
10
-522.70526315789459
20
-39.999999999999993
10
-522.70526315789459
20
-37
10
-491.95789473684204
20
-37
10
-491.95789473684204
20
-39.999999999999993
10
-461.21052631578937
20
-39.999999999999993
10
-461.21052631578937
20
-37
10
-430.4631578947367
20
-37
10
-430.4631578947367
20
-39.999999999999993
10
-399.71578947368408
20
-39.999999999999993
10
-399.71578947368408
20
-37
10
-368.96842105263141
20
-37
10
-368.96842105263141
20
-39.999999999999993
10
-338.2210526315788
20
-39.999999999999993
10
-338.2210526315788
20
-37
10
-307.47368421052613
20
-37
10
-307.47368421052613
20
-39.999999999999993
10
-276.72631578947352
20
-39.999999999999993
10
-276.72631578947352
20
-37
10
-245.97894736842085
20
-37
10
-245.97894736842085
20
-39.999999999999993
10
-215.23157894736826
20
-39.999999999999993
10
-215.23157894736826
20
-37
10
-184.48421052631559
20
-37
10
-184.48421052631559
20
-39.999999999999993
10
-153.73684210526301
20
-39.999999999999993
10
-153.73684210526301
20
-37
10
-122.98947368421032
20
-37
10
-122.98947368421032
20
-39.999999999999993
10
-92.242105263157725
20
-39.999999999999993
10
-92.242105263157725
20
-37
10
-61.494736842105056
20
-37
10
-61.494736842105056
20
-39.999999999999993
10
-30.747368421052457
20
-39.999999999999993
10
-30.747368421052457
20
-37
10
1.4210854715202004e-13
20
-37
10
0
20
-31.999999999999993
10
-3.0000000000000071
20
-31.999999999999993
10
-3.0000000000000071
20
-23.999999999999993
10
0
20
-23.999999999999993
10
0
20
-15.999999999999996
10
-3.0000000000000071
20
-15.999999999999996
10
-3.0000000000000071
20
-7.9999999999999982
10
0
20
-7.9999999999999982
10
0
20
0
10
-30.747368421052386
20
0
10
-30.747368421052386
20
-2.9999999999999991
10
-61.494736842105056
20
-2.9999999999999991
10
-61.494736842105056
20
0
10
-92.242105263157725
20
0
10
-92.242105263157725
20
-2.9999999999999991
10
-122.9894736842104
20
-2.9999999999999991
10
-122.9894736842104
20
0
10
-153.73684210526292
20
0
10
-153.73684210526292
20
-2.9999999999999991
10
-184.48421052631559
20
-2.9999999999999991
10
-184.48421052631559
20
0
10
-215.23157894736826
20
0
10
-215.23157894736826
20
-2.9999999999999991
10
-245.97894736842093
20
-2.9999999999999991
10
-245.97894736842093
20
0
10
-276.72631578947352
20
0
10
-276.72631578947352
20
-2.9999999999999991
10
-307.47368421052619
20
-2.9999999999999991
10
-307.47368421052619
20
0
10
-338.2210526315788
20
0
10
-338.2210526315788
20
-2.9999999999999991
10
-368.96842105263147
20
-2.9999999999999991
10
-368.96842105263147
20
0
10
-399.71578947368408
20
0
10
-399.71578947368408
20
-2.9999999999999991
10
-430.46315789473675
20
-2.9999999999999991
10
-430.46315789473675
20
0
10
-461.21052631578937
20
0
10
-461.21052631578937
20
-2.9999999999999991
10
-491.95789473684204
20
-2.9999999999999991
10
-491.95789473684204
20
0
10
-522.70526315789459
20
0
10
-522.70526315789459
20
-2.9999999999999991
10
-553.45263157894715
20
-2.9999999999999991
10
-553.45263157894715
20
0
10
-584.20000000000005
20
-2.7117093616972281e-30
10
-584.20000000000005
20
-7.9999999999999982
10
-581.20000000000005
20
-7.9999999999999982
10
-581.20000000000005
20
-15.999999999999996
10
-584.20000000000005
20
-15.999999999999996
10
-584.20000000000005
20
-24
10
-581.20000000000005
20
-24
10
-581.20000000000005
20
-31.999999999999996
10
-584.20000000000005
20
-31.999999999999996
10
-584.19999999999982
20
-37
0
ENDSEC
0
SECTION
2
OBJECTS
0
DICTIONARY
5
C
100
AcDbDictionary
3
ACAD_GROUP
350
D
3
ACAD_MLINESTYLE
350
17
0
DICTIONARY
5
D
100
AcDbDictionary
0
DICTIONARY
5
1A
330
C
100
AcDbDictionary
0
DICTIONARY
5
17
100
AcDbDictionary
0
ENDSEC
0
EOF
